<?xml version="1.0" standalone="no"?>
<!DOCTYPE svg PUBLIC "-//W3C//DTD SVG 20010904//EN"
 "http://www.w3.org/TR/2001/REC-SVG-20010904/DTD/svg10.dtd">
<svg version="1.0" xmlns="http://www.w3.org/2000/svg"
 width="260.000000pt" height="117.000000pt" viewBox="0 0 260.000000 117.000000"
 preserveAspectRatio="xMidYMid meet">

<g transform="translate(0.000000,117.000000) scale(0.100000,-0.100000)"
fill="#000000" stroke="none">
<path d="M370 1063 c-129 -9 -219 -63 -261 -155 -24 -52 -24 -59 -26 -390 -2
-230 0 -339 8 -343 6 -4 84 -9 175 -12 121 -3 169 -2 179 7 11 10 15 37 15
116 l0 103 -67 3 -68 3 2 143 c0 88 6 155 13 173 14 33 55 59 95 59 l25 0 0
150 c0 149 0 150 -22 148 -13 -1 -43 -3 -68 -5z"/>
<path d="M882 1020 c-2 -20 -4 -22 -12 -10 -6 10 -10 11 -10 3 0 -10 -42 -13
-175 -13 l-175 0 0 -115 0 -115 65 0 65 0 0 -156 0 -156 -34 -34 c-23 -23 -43
-34 -64 -34 -29 0 -29 -1 -35 -67 -4 -38 -7 -104 -7 -147 l0 -79 89 6 c87 6
155 26 197 57 66 48 99 149 101 300 0 58 -1 93 -4 77 l-4 -28 -19 23 c-20 25
-20 33 9 144 18 68 21 103 18 225 -1 79 -4 133 -5 119z m-45 -457 c-4 -3 -2
-12 4 -20 9 -10 6 -13 -12 -13 -19 0 -21 2 -9 10 8 5 11 10 7 10 -9 0 1 20 10
20 4 0 3 -3 0 -7z"/>
<path d="M1010 711 c0 -5 9 -11 20 -14 19 -5 20 -14 20 -127 0 -113 -1 -122
-20 -127 -53 -14 -7 -23 119 -23 l139 0 4 45 c2 25 0 45 -4 45 -5 0 -8 -4 -8
-9 0 -4 -11 -20 -25 -35 -19 -21 -33 -26 -70 -26 -40 0 -47 3 -55 26 -6 14
-10 41 -10 60 0 35 1 35 38 32 27 -2 40 -9 47 -25 17 -38 25 -26 25 37 0 63
-8 75 -25 38 -7 -17 -20 -24 -47 -26 l-38 -3 0 60 0 61 49 0 c44 0 52 -4 75
-32 l26 -33 0 43 0 42 -130 0 c-71 0 -130 -4 -130 -9z"/>
<path d="M1320 710 c0 -5 9 -10 19 -10 27 0 31 -18 31 -141 0 -108 0 -110 -25
-119 -14 -5 -25 -12 -25 -15 0 -3 36 -5 80 -5 75 0 105 11 60 23 -17 4 -20 14
-20 56 0 28 4 51 9 51 6 0 31 -29 58 -65 l48 -65 58 0 c57 0 76 13 35 24 -20
4 -97 89 -106 114 -1 5 9 14 23 20 30 14 49 56 40 90 -9 37 -60 52 -180 52
-63 0 -105 -4 -105 -10z m181 -20 c14 -8 19 -21 19 -50 0 -44 -20 -70 -56 -70
-23 0 -24 3 -24 65 0 59 2 65 21 65 11 0 29 -5 40 -10z"/>
<path d="M1776 710 c-39 -12 -83 -56 -97 -97 -31 -95 49 -193 159 -193 54 0
122 38 144 80 66 126 -59 254 -206 210z m117 -42 c29 -38 29 -158 0 -196 -34
-46 -92 -42 -118 8 -30 59 -13 197 27 214 30 12 72 0 91 -26z"/>
<path d="M2030 710 c0 -5 7 -10 15 -10 25 0 30 -26 27 -144 -3 -107 -5 -116
-23 -116 -10 0 -19 -4 -19 -10 0 -6 53 -10 140 -10 l140 0 -1 53 c0 44 -2 49
-12 33 -40 -62 -48 -67 -96 -64 l-46 3 -3 128 c-2 122 -2 127 18 127 11 0 20
5 20 10 0 6 -33 10 -80 10 -47 0 -80 -4 -80 -10z"/>
</g>
</svg>
